<?xml version="1.0" encoding="UTF-8"?>
<svg version="1.1" xmlns="http://www.w3.org/2000/svg" width="236" height="236">
<path d="M0 0 C4.76016647 4.10564358 8.70391874 8.64386795 12 14 C10.6390377 18.08288689 8.52046678 18.88685817 4.9375 21.1875 C3.83277344 21.90292969 2.72804687 22.61835937 1.58984375 23.35546875 C0.30787109 24.16951172 0.30787109 24.16951172 -1 25 C-3.71597455 22.33843562 -6.27820591 19.72568653 -8.5625 16.6875 C-16.89445087 6.98098871 -29.45320433 0.8696687 -42.09814453 -0.28222656 C-54.94327039 -1.01518141 -67.56694632 -1.60194378 -79 5 C-79.95003906 5.515625 -80.90007812 6.03125 -81.87890625 6.5625 C-86.56767402 9.21378969 -86.56767402 9.21378969 -90.6484375 12.6796875 C-92 14 -92 14 -94 14 C-94.26296875 14.58007812 -94.5259375 15.16015625 -94.796875 15.7578125 C-96.05811968 18.10831396 -97.50872918 19.8592045 -99.25 21.875 C-110.80210166 36.48997622 -112.30297063 54.11831097 -111 72 C-109.12869803 86.05217956 -101.43782998 99.55941492 -91 109 C-74.43674627 121.44637563 -56.08930769 124.54544338 -35.72021484 121.67919922 C-31.94462072 120.89193954 -28.49368325 119.61165358 -25 118 C-24.20207031 117.649375 -23.40414062 117.29875 -22.58203125 116.9375 C-12.34826199 111.86465052 -5.00378179 103.52255456 1 94 C6.80342274 95.48805711 11.17590879 98.59097555 16 102 C8.20166447 117.25761299 -4.733014 129.78911514 -21.11523438 135.14599609 C-44.13557181 142.33326979 -68.99005476 141.24452113 -90.48168945 130.13037109 C-95.77937014 127.25416673 -100.53431995 124.0704127 -105 120 C-105.81855469 119.27296875 -106.63710937 118.5459375 -107.48046875 117.796875 C-114.0640789 111.62162796 -118.69575524 104.90712821 -123 97 C-123.495 96.09378906 -123.99 95.18757813 -124.5 94.25390625 C-133.77361392 75.67907837 -133.38550879 52.3677228 -127.00390625 32.97265625 C-118.88710964 11.59936137 -103.79418881 -2.71109217 -83.25 -12.3125 C-55.4805228 -23.6614957 -23.27715931 -18.46008051 0 0 Z " fill="#1B7A33" transform="translate(131,43)"/>
<path d="M0 0 C3.14348089 2.52794128 6.11010599 5.18689061 9 8 C8.60167969 8.45890625 8.20335937 8.9178125 7.79296875 9.390625 C5.08857938 12.52271585 2.42008229 15.63877459 0 19 C-3.97278668 17.09599164 -7.63849347 14.77523921 -11.3671875 12.4375 C-16.57454106 9.59431586 -21.08657721 8.70695205 -27 8.6875 C-28.175625 8.67074219 -29.35125 8.65398437 -30.5625 8.63671875 C-34.36012349 9.0380585 -36.75758552 10.01348391 -40 12 C-41.82078724 14.92909251 -42.01557453 16.61842399 -41.875 20.0625 C-40.8256788 23.58522118 -39.82240953 24.66573227 -37 27 C-34.51794435 28.07095044 -32.15154226 28.97244669 -29.59375 29.8046875 C-28.87320435 30.05115021 -28.15265869 30.29761292 -27.41027832 30.55154419 C-25.11045797 31.33719306 -22.8059294 32.10748391 -20.5 32.875 C-1.81411895 39.123565 15.83500816 45.40866773 26.3203125 63.24609375 C31.23888552 73.9947236 30.7894865 89.65085926 27.375 100.8125 C22.12894718 113.57911804 13.63640465 121.66288499 1 127 C-15.95847602 133.65038275 -38.76573767 133.59436788 -56 128 C-57.08796875 127.6596875 -58.1759375 127.319375 -59.296875 126.96875 C-71.87835071 122.59772088 -82.38554016 115.16759097 -91 105 C-91.33 104.01 -91.66 103.02 -92 102 C-88.04 99.03 -84.08 96.06 -80 93 C-78.68 93.66 -77.36 94.32 -76 95 C-75.67 95.99 -75.34 96.98 -75 98 C-73.68870382 98.70903071 -72.35212298 99.37231722 -71 100 C-69.95313947 100.90834463 -68.93270549 101.8478379 -67.9375 102.8125 C-57.27303959 112.13537584 -42.74469508 114.52618836 -29.0625 114.4375 C-27.42764648 114.4674707 -27.42764648 114.4674707 -25.75976562 114.49804688 C-15.77604898 114.49211478 -5.8680235 112.79149475 1.5625 105.625 C2.34753906 104.89539063 3.13257813 104.16578125 3.94140625 103.4140625 C10.52659633 95.69177128 10.77035446 86.72006067 10 77 C8.29911292 68.79436909 3.89223337 63.5848335 -3 59 C-9.423154 55.55711829 -16.29643759 53.24247977 -23.14453125 50.8046875 C-24.24087891 50.414021 -25.33722656 50.02335449 -26.46679688 49.62084961 C-28.65070714 48.84841725 -30.83810189 48.0857472 -33.02929688 47.33422852 C-40.89409328 44.58709704 -49.03058376 41.62355131 -54.9375 35.5 C-55.48277344 34.9534375 -56.02804688 34.406875 -56.58984375 33.84375 C-61.57478779 27.32603923 -60.72703379 18.76012913 -60 11 C-57.9396672 4.04278321 -53.24555276 -0.52528281 -47 -4 C-44.04998268 -5.25585045 -41.10121992 -6.19620219 -38 -7 C-37.175 -7.226875 -36.35 -7.45375 -35.5 -7.6875 C-23.34618768 -9.20672654 -10.29732542 -6.79588981 0 0 Z " fill="#1B7A33" transform="translate(207,81)"/>
<path d="M0 0 C3.20859487 2.66605064 6.2070117 5.46028665 9.0625 8.5 C5.6814962 12.63621084 2.39659466 16.31316569 -1.9375 19.5 C-2.88625 18.613125 -3.835 17.72625 -4.8125 16.8125 C-17.53615314 5.89545076 -33.83379966 4.26939097 -49.9375 5.5 C-60.01670023 7.15008805 -67.30325051 11.1908723 -73.375 19.45703125 C-77.22545491 26.44935041 -76.82050936 34.79303237 -75.9375 42.5 C-73.89851814 49.528172 -70.02495428 54.53618911 -63.9375 58.5 C-55.19803616 63.00631469 -45.93537311 65.99100714 -36.609375 69.01757812 C-25.97702631 72.57639152 -13.94770855 76.87074523 -8.125 87 C-4.64787827 94.48241385 -4.79984351 101.97684245 -7.375 109.75 C-10.25137442 116.03953702 -15.08454326 120.70153721 -21.34765625 123.625 C-23.54017718 124.38634283 -25.67217064 124.99980866 -27.9375 125.5 C-28.66710937 125.68046875 -29.39671875 125.8609375 -30.1484375 126.046875 C-45.18544921 128.4898629 -61.68563388 126.77860048 -74.578125 118.27734375 C-86.26192343 109.47580685 -86.26192343 109.47580685 -87.71484375 105.2265625 C-87.78832031 104.65679687 -87.86179688 104.08703125 -87.9375 103.5 C-86.19944659 102.13053378 -84.44658767 100.77984046 -82.6875 99.4375 C-81.22570312 98.30634766 -81.22570312 98.30634766 -79.734375 97.15234375 C-76.9375 95.5 -76.9375 95.5 -74.77734375 95.55078125 C-72.60301724 96.67256754 -71.36584715 97.91471682 -69.75 99.75 C-62.50963983 107.26824179 -53.79554483 110.37824152 -43.5 110.8125 C-37.99712819 110.67710421 -31.48852398 109.68741649 -27.2109375 106.01953125 C-24.60237896 102.90686477 -24.69873003 100.4794995 -24.9375 96.5 C-26.6413443 91.80937724 -29.66824355 90.77396597 -33.98632812 88.74511719 C-39.12329039 86.57780187 -44.39190837 84.85880732 -49.6875 83.125 C-66.39659087 77.44702835 -82.31724063 71.83306078 -91 55.25 C-94.09953708 48.46610753 -95.30479093 42.07566546 -95.25 34.6875 C-95.24436035 33.89287354 -95.2387207 33.09824707 -95.23291016 32.27954102 C-94.9932811 20.671767 -91.21104622 12.65247059 -83.6875 3.875 C-61.63034826 -15.17435832 -23.92568379 -18.01278976 0 0 Z " fill="#1C7933" transform="translate(219.9375,66.5)"/>
<path d="M0 0 C5.30757024 4.04009078 10.00218899 8.35249496 13.3671875 14.1796875 C13.3671875 14.8396875 13.3671875 15.4996875 13.3671875 16.1796875 C11.39277823 17.6428658 9.43479879 18.98681814 7.3671875 20.3046875 C6.50867188 20.86349609 6.50867188 20.86349609 5.6328125 21.43359375 C4.21496968 22.35519158 2.79158025 23.26824571 1.3671875 24.1796875 C-1.93231221 22.78593331 -3.51083516 21.28109455 -5.6328125 18.4296875 C-10.83196294 12.25147626 -18.63268435 8.2798546 -26.6328125 7.1796875 C-38.51809925 6.40095228 -47.72515355 6.99199879 -57.3828125 14.6796875 C-65.1995847 22.09524484 -69.4566702 32.8138095 -69.93359375 43.51171875 C-69.95286836 45.00508906 -69.95640847 46.49873403 -69.9453125 47.9921875 C-69.94039795 48.77972412 -69.9354834 49.56726074 -69.93041992 50.37866211 C-69.7278315 60.5028887 -67.09390382 68.65969376 -61.6328125 77.1796875 C-60.7975 78.51 -60.7975 78.51 -59.9453125 79.8671875 C-53.01533387 86.79716613 -44.22414607 90.37482148 -34.48046875 90.50952148 C-22.40365285 90.41261213 -13.63626616 88.90074501 -4.6328125 80.1796875 C-2.13876355 77.28530228 0.16571091 74.30139546 2.3671875 71.1796875 C5.98995065 72.5052456 9.00224098 74.12315705 12.1796875 76.3046875 C12.96988281 76.84351563 13.76007813 77.38234375 14.57421875 77.9375 C15.16589844 78.34742188 15.75757813 78.75734375 16.3671875 79.1796875 C13.29748401 88.29134707 4.20058913 96.98732289 -4.1953125 101.58203125 C-19.35066171 108.84396941 -37.67208253 109.84045137 -53.62890625 104.43359375 C-68.79606928 98.10243727 -79.43818725 87.13485403 -85.98046875 72.078125 C-91.63285936 57.04560229 -92.05238455 39.02494787 -85.6328125 24.1796875 C-85.106875 22.86677734 -85.106875 22.86677734 -84.5703125 21.52734375 C-78.79502828 8.51290118 -67.51947279 -1.28905192 -54.6328125 -6.8203125 C-53.91996094 -7.14257812 -53.20710938 -7.46484375 -52.47265625 -7.796875 C-35.68388402 -14.1333781 -14.38073207 -9.94276134 0 0 Z " fill="#1B7A33" transform="translate(112.6328125,54.8203125)"/>
<path d="M0 0 C0.66 0.33 1.32 0.66 2 1 C-1.3 4.3 -4.6 7.6 -8 11 C-8 7.0234755 -6.61988497 5.9109833 -4 3 C-1.75 1.1875 -1.75 1.1875 0 0 Z " fill="#147033" transform="translate(141,66)"/>
</svg>
